<svg width="134" height="37" viewBox="0 0 134 37" fill="none" xmlns="http://www.w3.org/2000/svg">
<rect width="133.013" height="37" rx="4" fill="#756257"/>
<path d="M29.7423 15.752H25.8223V25H23.6303V13.8H31.9343V25H29.7423V15.752ZM33.4971 19.4C33.4971 17.5333 33.9078 16.0987 34.7291 15.096C35.5504 14.0827 36.7238 13.576 38.2491 13.576C39.0491 13.576 39.7478 13.7147 40.3451 13.992C40.9424 14.2693 41.4384 14.664 41.8331 15.176C42.2278 15.688 42.5211 16.3013 42.7131 17.016C42.9051 17.7307 43.0011 18.5253 43.0011 19.4C43.0011 21.2667 42.5851 22.7067 41.7531 23.72C40.9318 24.7227 39.7638 25.224 38.2491 25.224C37.4384 25.224 36.7344 25.0853 36.1371 24.808C35.5398 24.5307 35.0438 24.136 34.6491 23.624C34.2651 23.112 33.9771 22.4987 33.7851 21.784C33.5931 21.0693 33.4971 20.2747 33.4971 19.4ZM35.8011 19.4C35.8011 19.9653 35.8491 20.488 35.9451 20.968C36.0411 21.4373 36.1851 21.8427 36.3771 22.184C36.5798 22.5253 36.8358 22.792 37.1451 22.984C37.4544 23.176 37.8224 23.272 38.2491 23.272C39.0278 23.272 39.6304 22.968 40.0571 22.36C40.4838 21.752 40.6971 20.7653 40.6971 19.4C40.6971 18.856 40.6491 18.3493 40.5531 17.88C40.4678 17.4107 40.3291 17 40.1371 16.648C39.9451 16.296 39.6944 16.024 39.3851 15.832C39.0758 15.6293 38.6971 15.528 38.2491 15.528C37.4704 15.528 36.8678 15.8427 36.4411 16.472C36.0144 17.0907 35.8011 18.0667 35.8011 19.4ZM54.095 27H52.543L52.303 25H45.103L44.863 27H43.311V23.048H44.495C44.5696 22.9307 44.6923 22.6693 44.863 22.264C45.0336 21.8587 45.2043 21.288 45.375 20.552C45.5456 19.8053 45.6896 18.8773 45.807 17.768C45.9243 16.648 45.9776 15.3253 45.967 13.8H52.671V23.048H54.095V27ZM50.479 23.048V15.752H47.999C47.935 17.6507 47.7803 19.208 47.535 20.424C47.3003 21.6293 47.0603 22.504 46.815 23.048H50.479ZM55.3335 13.912C55.7815 13.8267 56.2721 13.7627 56.8055 13.72C57.3495 13.6667 57.8881 13.64 58.4215 13.64C58.9761 13.64 59.5308 13.688 60.0855 13.784C60.6508 13.8693 61.1575 14.0507 61.6055 14.328C62.0535 14.5947 62.4161 14.9733 62.6935 15.464C62.9815 15.944 63.1255 16.5733 63.1255 17.352C63.1255 18.056 63.0028 18.6533 62.7575 19.144C62.5121 19.624 62.1868 20.0187 61.7815 20.328C61.3761 20.6373 60.9121 20.8613 60.3895 21C59.8775 21.1387 59.3441 21.208 58.7895 21.208C58.7361 21.208 58.6508 21.208 58.5335 21.208C58.4161 21.208 58.2935 21.208 58.1655 21.208C58.0375 21.1973 57.9095 21.1867 57.7815 21.176C57.6641 21.1653 57.5788 21.1547 57.5255 21.144V25H55.3335V13.912ZM58.5975 15.528C58.3841 15.528 58.1815 15.5387 57.9895 15.56C57.7975 15.5707 57.6428 15.5867 57.5255 15.608V19.24C57.5681 19.2507 57.6321 19.2613 57.7175 19.272C57.8028 19.2827 57.8935 19.2933 57.9895 19.304C58.0855 19.304 58.1761 19.304 58.2615 19.304C58.3575 19.304 58.4268 19.304 58.4695 19.304C58.7575 19.304 59.0401 19.2773 59.3175 19.224C59.6055 19.1707 59.8615 19.0747 60.0855 18.936C60.3095 18.7867 60.4855 18.584 60.6135 18.328C60.7521 18.072 60.8215 17.736 60.8215 17.32C60.8215 16.968 60.7575 16.68 60.6295 16.456C60.5015 16.2213 60.3308 16.0347 60.1175 15.896C59.9148 15.7573 59.6801 15.6613 59.4135 15.608C59.1468 15.5547 58.8748 15.528 58.5975 15.528ZM63.9658 19.4C63.9658 17.5333 64.3765 16.0987 65.1978 15.096C66.0192 14.0827 67.1925 13.576 68.7178 13.576C69.5178 13.576 70.2165 13.7147 70.8138 13.992C71.4112 14.2693 71.9072 14.664 72.3018 15.176C72.6965 15.688 72.9898 16.3013 73.1818 17.016C73.3738 17.7307 73.4698 18.5253 73.4698 19.4C73.4698 21.2667 73.0538 22.7067 72.2218 23.72C71.4005 24.7227 70.2325 25.224 68.7178 25.224C67.9072 25.224 67.2032 25.0853 66.6058 24.808C66.0085 24.5307 65.5125 24.136 65.1178 23.624C64.7338 23.112 64.4458 22.4987 64.2538 21.784C64.0618 21.0693 63.9658 20.2747 63.9658 19.4ZM66.2698 19.4C66.2698 19.9653 66.3178 20.488 66.4138 20.968C66.5098 21.4373 66.6538 21.8427 66.8458 22.184C67.0485 22.5253 67.3045 22.792 67.6138 22.984C67.9232 23.176 68.2912 23.272 68.7178 23.272C69.4965 23.272 70.0992 22.968 70.5258 22.36C70.9525 21.752 71.1658 20.7653 71.1658 19.4C71.1658 18.856 71.1178 18.3493 71.0218 17.88C70.9365 17.4107 70.7978 17 70.6058 16.648C70.4138 16.296 70.1632 16.024 69.8538 15.832C69.5445 15.6293 69.1658 15.528 68.7178 15.528C67.9392 15.528 67.3365 15.8427 66.9098 16.472C66.4832 17.0907 66.2698 18.0667 66.2698 19.4ZM75.0366 13.8H81.9326V15.752H77.2286V18.088C77.4099 18.056 77.6286 18.024 77.8846 17.992C78.1513 17.96 78.4126 17.944 78.6686 17.944C79.2659 17.944 79.8153 18.0027 80.3166 18.12C80.8179 18.2373 81.2446 18.4347 81.5966 18.712C81.9593 18.9787 82.2419 19.336 82.4446 19.784C82.6473 20.2213 82.7486 20.76 82.7486 21.4C82.7486 22.0293 82.6419 22.5787 82.4286 23.048C82.2259 23.5173 81.9273 23.9067 81.5326 24.216C81.1486 24.5253 80.6793 24.76 80.1246 24.92C79.5806 25.08 78.9673 25.16 78.2846 25.16C78.1033 25.16 77.8739 25.1547 77.5966 25.144C77.3299 25.1333 77.0419 25.1173 76.7326 25.096C76.4339 25.0747 76.1353 25.048 75.8366 25.016C75.5379 24.984 75.2713 24.9413 75.0366 24.888V13.8ZM78.4446 23.352C78.7219 23.352 78.9779 23.32 79.2126 23.256C79.4579 23.1813 79.6713 23.0747 79.8526 22.936C80.0339 22.7867 80.1779 22.6 80.2846 22.376C80.3913 22.152 80.4446 21.88 80.4446 21.56C80.4446 21.176 80.3859 20.8667 80.2686 20.632C80.1513 20.3973 79.9913 20.216 79.7886 20.088C79.5859 19.9493 79.3513 19.8587 79.0846 19.816C78.8286 19.7733 78.5513 19.752 78.2526 19.752C78.1033 19.752 77.9166 19.768 77.6926 19.8C77.4686 19.8213 77.3139 19.8427 77.2286 19.864V23.272C77.3459 23.304 77.5219 23.3253 77.7566 23.336C78.0019 23.3467 78.2313 23.352 78.4446 23.352ZM90.4496 20.312H86.3536V25H84.1616V13.8H86.3536V18.36H90.4496V13.8H92.6416V25H90.4496V20.312ZM94.5835 13.8H101.223V15.752H96.7755V18.36H100.823V20.312H96.7755V23.048H101.303V25H94.5835V13.8ZM102.943 13.8H109.583V15.752H105.135V18.36H109.183V20.312H105.135V23.048H109.663V25H102.943V13.8Z" fill="white"/>
</svg>
